<svg aria-hidden="true" style="position: absolute; width: 0; height: 0; overflow: hidden;" version="1.1" xmlns="http://www.w3.org/2000/svg" xmlns:xlink="http://www.w3.org/1999/xlink">
<defs>
<symbol id="icon-logo" viewBox="0 0 100 32">
<path fill="#ff6b0a" style="fill: var(--color1, #ff6b0a)" d="M43.846 1.104h-43.846v30h43.846l11.538-15-11.538-15zM19.657 14.075c-0.068-0.055-0.135-0.109-0.202-0.163-0.169-0.137-0.335-0.271-0.506-0.4-0.466-0.356-0.972-0.639-1.553-0.765-0.641-0.14-1.288-0.191-1.928 0.003-0.912 0.276-1.547 0.876-1.967 1.713-0.348 0.696-0.441 1.434-0.35 2.201 0.073 0.601 0.266 1.158 0.621 1.652 0.545 0.759 1.288 1.198 2.217 1.314 0.836 0.105 1.646 0 2.413-0.366 0.262-0.125 0.262-0.128 0.262-0.417v-0.005c0-0.070 0-0.141 0-0.211v-0c0-0.14 0.001-0.28-0-0.42-0-0.028 0-0.052 0-0.073 0.001-0.058 0.001-0.088-0.013-0.104s-0.048-0.016-0.116-0.015c-0.017 0-0.036 0-0.057 0h-2.431c-0.022 0-0.041 0-0.058 0h-0c-0.068 0.001-0.101 0.001-0.117-0.015s-0.014-0.046-0.013-0.105c0-0.020 0.001-0.043 0.001-0.070-0.001-0.647-0.001-1.294-0-1.94v-0.005c0-0.322 0-0.643 0-0.965l0-0.016 0.001-0.019c0.001-0.024 0.001-0.049-0.001-0.072-0.005-0.057 0.015-0.088 0.078-0.082 0.024 0.002 0.048 0.001 0.073 0.001h0c0.012-0 0.024-0.001 0.036-0.001h6.146c0.040 0 0.074 0.008 0.068 0.059-0.003 0.031 0.017 0.051 0.036 0.072 0.024 0.025 0.049 0.052 0.035 0.097-0.012 0.039-0.009 0.082-0.006 0.125v0c0.001 0.019 0.003 0.039 0.003 0.058l-0 1.105c-0 1.474-0 2.948 0.003 4.422 0 0.12-0.037 0.196-0.128 0.271-1.144 0.947-2.431 1.609-3.887 1.937-0.861 0.194-1.733 0.248-2.614 0.177-1.041-0.083-2.030-0.349-2.944-0.855-1.677-0.927-2.733-2.335-3.219-4.172-0.214-0.812-0.279-1.639-0.211-2.473 0.255-3.095 2.433-5.51 5.35-6.182 0.833-0.193 1.674-0.22 2.522-0.163 0.65 0.045 1.29 0.146 1.916 0.331 0.937 0.279 1.764 0.759 2.516 1.375 0.088 0.072 0.175 0.145 0.26 0.219 0.108 0.092 0.111 0.145 0.017 0.259-0.474 0.57-0.948 1.138-1.423 1.706-0.237 0.285-0.474 0.57-0.712 0.853l-0.009 0.012-0.009 0.012c-0.026 0.035-0.054 0.073-0.099 0.1zM31.752 9.181c1.764 0.014 3.47 0.634 4.902 1.937 1.112 1.013 1.793 2.276 2.066 3.75 0.303 1.64 0.085 3.211-0.729 4.675-0.966 1.737-2.44 2.851-4.364 3.354-1.655 0.434-3.297 0.346-4.881-0.311-2.063-0.858-3.396-2.398-4.021-4.514-0.559-1.893-0.356-3.733 0.644-5.449 0.974-1.672 2.44-2.72 4.314-3.208 0.646-0.168 1.254-0.234 2.069-0.236zM31.333 12.703c-0.968 0.022-1.965 0.573-2.589 1.723-0.424 0.781-0.523 1.623-0.362 2.493 0.127 0.687 0.426 1.295 0.921 1.794 0.773 0.779 1.719 1.086 2.803 0.961 1.121-0.128 1.954-0.701 2.488-1.685 0.454-0.838 0.548-1.734 0.336-2.657-0.35-1.531-1.634-2.635-3.597-2.63z"></path>
<path fill="#010101" style="fill: var(--color2, #010101)" d="M99.231 1.104v30h-43.846v-30h43.846zM69.769 9.364v13.056c0 0.014 0 0.028 0.001 0.042v0c0.001 0.028 0.001 0.055-0.001 0.081-0.006 0.076 0.014 0.12 0.101 0.108 0.021-0.002 0.041-0.001 0.062-0.001 0.010 0 0.021 0.001 0.031 0.001 0.366 0 0.731 0 1.097 0h0.003c0.732 0 1.464 0.001 2.196-0 0.023 0 0.043 0 0.062 0 0.070 0.001 0.105 0.001 0.121-0.016s0.015-0.048 0.013-0.109v-0c-0.001-0.021-0.001-0.045-0.001-0.073v-13.072c0-0.010-0-0.021-0.001-0.031-0.001-0.021-0.001-0.041 0.001-0.062 0.008-0.077-0.019-0.117-0.102-0.108-0.016 0.002-0.034 0.001-0.051 0.001l-0.006-0c-0.007-0-0.014-0-0.020-0-0.369 0-0.739-0-1.109-0h-0c-0.74-0-1.48-0.001-2.219 0-0.022 0-0.041-0-0.058-0.001h-0c-0.061-0.001-0.091-0.001-0.107 0.014s-0.015 0.046-0.014 0.108c0 0.017 0.001 0.037 0.001 0.060zM88.124 9.183h-5.497c-1.832 0-3.664 0-5.494-0.002-0.007 0-0.015 0-0.022 0-0.006 0-0.013 0-0.019 0-0.027 0-0.055 0.001-0.082-0-0.062-0.003-0.084 0.026-0.079 0.083 0.001 0.017 0.001 0.034 0 0.051-0 0.009-0 0.017-0 0.026v3.126l-0 0.032c-0 0.067-0 0.1 0.016 0.116s0.048 0.015 0.11 0.015l0.043-0h3.453c0.113 0 0.168 0 0.196 0.028s0.027 0.081 0.027 0.188v9.639c0 0.018-0 0.035-0.001 0.049v0c-0.001 0.055-0.001 0.084 0.013 0.099 0.016 0.017 0.049 0.016 0.119 0.016l0.034-0h3.314c0.104 0 0.155 0 0.181-0.026s0.025-0.075 0.025-0.174v-9.639c0-0.021-0-0.039-0.001-0.056v-0c-0.001-0.059-0.001-0.091 0.014-0.107 0.016-0.017 0.052-0.017 0.125-0.017l0.046 0h3.515c0.152 0 0.152 0 0.153-0.149v-3.111c0-0.021 0-0.040 0-0.057v-0c0.001-0.068 0.001-0.101-0.015-0.118s-0.049-0.016-0.115-0.015h-0c-0.017 0-0.037 0.001-0.059 0.001z"></path>
</symbol>
<symbol id="icon-trezub" viewBox="0 0 20 32">
<path fill="#f2cd13" style="fill: var(--color3, #f2cd13)" d="M17.874 2.977c-5.057 4.907-4.279 12.541-4.244 12.868l0.071 0.618 0.601 0.073c0.177 0.036 1.202 0.254 1.061 1.89-0.106 1.418-1.662 1.636-2.299 1.709-0.531-0.727-2.264-3.744-2.44-12.396 0-0.436 0-0.872 0-1.309 0 0 0.141-3.090 0.283-4.398l-1.026-2.254-1.061 2.181c0.141 1.309 0.283 4.398 0.283 4.398 0 0.436 0 0.872 0 1.309-0.177 8.651-1.91 11.705-2.44 12.396-0.672-0.036-2.193-0.291-2.299-1.709-0.141-1.636 0.884-1.854 1.061-1.89l0.601-0.073 0.071-0.618c0.035-0.327 0.813-7.961-4.244-12.868l-1.238-1.127v23.519h5.128c0.424 3.453 3.501 6.034 3.643 6.143l0.46 0.4 0.46-0.4c0.141-0.109 3.254-2.69 3.643-6.143h5.128v-23.519l-1.202 1.2zM4.683 15.154c-0.743 0.291-1.627 1.054-1.768 2.508h-0.813v-12.141c2.582 3.562 2.617 8.106 2.582 9.633zM5.638 23.042l0.035 0.727h-3.572v-4.617h0.92c0.389 1.454 1.662 2.072 2.829 2.326-0.212 0.727-0.212 1.454-0.212 1.563zM7.123 23.006c0-0.4 0.035-0.981 0.212-1.345 1.309 0.291 1.662 1.381 1.768 2.145h-1.945l-0.035-0.8zM9.139 29.040c-0.743-0.909-1.627-2.217-1.874-3.744h1.874v3.744zM10.058 21.37c-0.071 0.073-0.141 0.182-0.212 0.291-0.071-0.109-0.141-0.182-0.212-0.291-0.389-0.436-0.849-0.8-1.379-1.018 0.495-0.872 1.096-2.326 1.591-4.762 0.495 2.435 1.096 3.926 1.591 4.762-0.531 0.218-0.99 0.545-1.379 1.018zM10.589 29.004v-3.708h1.874c-0.212 1.49-1.096 2.799-1.874 3.708zM12.605 23.006l-0.035 0.763h-1.945c0.106-0.763 0.46-1.854 1.768-2.145 0.177 0.4 0.212 0.981 0.212 1.381zM15.045 15.154c-0.071-1.49 0-6.034 2.582-9.633v12.141h-0.813c-0.141-1.49-0.99-2.217-1.768-2.508zM14.055 23.769l0.035-0.727c0-0.109 0.035-0.836-0.177-1.563 1.132-0.218 2.405-0.872 2.829-2.326h0.919v4.617h-3.607z"></path>
</symbol>
</defs>
</svg>
